<svg width="1200" height="675" viewBox="0 0 1200 675" version="1.1" xmlns="http://www.w3.org/2000/svg" xmlns:xlink="http://www.w3.org/1999/xlink">
		
		
		
		
		

		<!-- SVG background, generate your own on: https://app.haikei.app/ or  https://pattern.monster/ -->
		<svg id="visual" viewBox="0 0 1200 675" width="1200" height="675" xmlns="http://www.w3.org/2000/svg">
		<rect id="Background-Layer" x="0" y="0" width="1200" height="675" fill="#346063"/>
<path id="Mountains" d="M1200,475.732L1200,675L0,675L0,526.062L5.842,522.628L10.909,522.101L14.642,522.101L19.175,519.993L28.509,519.993L33.842,518.412L39.442,518.412L42.109,519.993L46.642,519.729L56.242,521.047L59.975,517.884L63.442,516.303L73.042,514.195L78.909,508.924L82.375,508.924L94.109,515.249L105.842,506.025L111.975,504.18L115.708,507.343L121.308,504.444L124.775,505.498L128.242,503.653L139.708,501.808L148.509,513.404L154.642,513.668L159.442,518.939L178.375,497.592L182.375,498.382L189.042,494.956L198.108,493.375L202.642,495.483L212.775,496.01L225.575,496.801L237.308,505.234L242.375,505.234L247.175,507.343L254.108,507.606L256.775,506.025L260.509,506.552L271.442,512.35L276.508,510.769L282.108,508.924L288.242,503.39L293.842,503.39L299.442,505.498L312.508,512.35L321.042,511.559L324.508,507.87L333.575,503.653L339.975,506.816L346.108,513.668L351.442,519.466L356.775,518.675L363.975,515.513L371.175,512.877L378.108,505.761L385.842,515.776L393.575,516.567L402.908,515.513L414.908,507.606L420.508,511.296L427.975,512.877L434.108,513.668L441.308,509.187L449.308,505.498L453.042,496.274L457.042,493.638L460.508,497.328L463.175,504.707L465.575,497.064L469.042,493.638L469.842,489.297L474.908,485.996L489.042,482.042L493.308,477.299L506.108,470.183L512.775,464.649L518.642,459.114L524.242,459.905L527.975,462.277L528.775,456.215L533.575,453.316L540.508,451.471L541.308,448.045L561.842,443.302L570.108,442.511L583.175,437.24L589.042,437.767L600,443.565L609.842,451.208L615.175,456.479L651.442,475.19L654.108,479.934L655.175,484.151L659.442,489.297L661.042,493.111L667.175,493.375L676.775,495.747L682.642,501.018L689.842,504.707L697.042,505.761L704.508,514.985L708.775,520.52L717.308,526.062L721.842,522.892L728.242,519.466L731.442,519.993L737.042,516.303L746.642,516.04L751.975,519.202L758.375,519.466L766.642,511.823L774.375,508.397L780.508,511.032L790.375,516.303L796.775,511.032L804.775,509.715L806.908,506.288L811.708,505.234L813.842,500.491L819.975,498.119L828.775,492.321L834.375,492.848L838.908,492.321L845.575,489.297L855.975,489.297L862.375,485.469L866.908,483.887L874.642,481.515L880.242,473.36L886.108,470.724L895.442,473.36L905.575,476.522L916.775,484.429L927.175,485.746L938.108,494.443L942.908,493.916L945.042,489.297L949.575,484.692L955.175,483.374L960.242,484.165L967.175,484.429L971.175,486.537L977.042,483.902L982.908,478.104L989.042,475.468L997.042,471.515L1002.91,471.515L1007.98,472.569L1013.04,472.306L1017.31,468.089L1026.64,467.035L1033.31,466.771L1041.04,460.446L1047.44,460.973L1057.31,461.5L1078.38,466.771L1094.11,475.468L1107.71,481.003L1117.31,489.297L1123.71,484.165L1130.11,483.902L1135.98,479.948L1138.38,476.259L1147.71,473.887L1155.71,472.042L1164.78,472.042L1173.04,474.15L1178.38,476.522L1187.98,473.623L1193.84,472.306L1200,475.732Z" fill="#F2F2D9"/>
 <g id="SnowCover">
        <path d="M618.784,522.812C617.185,523.602 612.399,516.091 609.191,513.324C606.166,510.715 602.6,508.449 599.536,506.209C596.635,504.088 593.328,502.434 590.805,499.884C588.018,497.065 585.742,491.062 582.811,489.297C580.08,487.653 575.619,491.387 573.219,489.297C570.554,486.977 569.879,479.48 566.824,475.374C563.626,471.077 558.297,466.809 554.034,463.515C550.072,460.453 542.842,458.375 541.244,455.608C539.696,452.93 541.886,448.68 544.441,446.911C547.106,445.066 553.009,445.522 557.231,444.539C561.761,443.485 566.805,441.711 571.62,440.586C576.413,439.467 581.47,436.532 586.123,437.793C590.776,439.055 602.795,444.841 599.536,448.154C587.097,460.799 602.962,470.55 602.962,477.407C602.962,481.528 598.098,485.551 599.536,489.297C600.974,493.043 608.381,496.67 611.589,499.884C614.25,502.549 617.661,505.003 618.784,508.58C619.983,512.402 620.382,522.021 618.784,522.812Z" fill="#a6b8aa"/>
        <path d="M1003.86,548.595C1005.68,546.274 1019.45,538.743 1025.44,534.671C1030.36,531.334 1035.78,527.104 1039.83,524.167C1043.13,521.778 1049.76,519.48 1049.76,517.052C1049.76,514.623 1042.68,511.517 1039.83,509.597C1037.55,508.061 1034.82,507.204 1032.63,505.531C1030.35,503.78 1028.06,501.447 1026.13,499.093C1023.9,496.387 1021.56,490.93 1019.27,489.297C1017.42,487.974 1013.96,490.714 1012.42,489.297C1010.88,487.88 1010.65,483.06 1010.02,480.795C1009.56,479.105 1008.08,477.181 1008.65,475.713C1009.22,474.245 1011.53,472.648 1013.45,471.986C1015.9,471.138 1021.04,470.856 1023.38,470.63C1024.75,470.499 1026.81,469.783 1027.5,470.63C1028.18,471.477 1026.74,474.191 1027.5,475.713C1028.75,478.254 1033.43,482.941 1035.03,485.878C1036.27,488.146 1035.89,491.412 1037.09,493.333C1038.24,495.179 1040.49,496.073 1042.23,497.399C1044.23,498.923 1047.19,500.618 1049.08,502.481C1050.87,504.255 1051.76,507.282 1053.53,508.58C1055.25,509.838 1057.64,510.836 1059.7,510.275C1064.67,508.919 1077.51,500.957 1083.34,500.448C1087.73,500.065 1090.97,504.82 1094.64,507.225C1098.53,509.766 1103.67,513.663 1106.63,515.696C1108.54,516.998 1112.74,518.181 1112.46,519.423C1112.17,520.666 1107.25,521.6 1104.92,523.151C1101.78,525.24 1096.59,529.589 1093.62,531.961C1091.41,533.723 1089.51,536.478 1087.11,537.382C1084.71,538.286 1081.45,536.14 1079.23,537.382C1077,538.624 1076.66,544.328 1073.75,544.837C1070.83,545.345 1064.61,541.448 1061.76,540.432C1060.06,539.827 1058.1,539.528 1056.62,538.737C1055.19,537.976 1054.41,536.11 1052.85,535.688C1050.96,535.18 1047.19,536.365 1045.31,535.688C1043.56,535.059 1043.39,531.409 1041.54,531.622C1039.09,531.904 1034.07,535.19 1030.58,537.382C1026.07,540.211 1018.93,546.726 1014.48,548.595C1011.22,549.962 1002.03,550.915 1003.86,548.595Z" fill="#a6b8aa"/>
        <path d="M1118.28,489.297C1119.6,490.822 1124.63,492.854 1127.53,495.027C1130.62,497.337 1134.21,500.448 1136.78,503.159C1139.13,505.631 1140.95,509.315 1142.95,511.291C1144.58,512.908 1146.78,514.171 1148.77,515.018C1150.71,515.839 1153.1,515.366 1154.94,516.374C1157.11,517.56 1160.31,520.666 1161.79,522.134C1162.66,522.998 1162.7,524.723 1163.85,525.184C1165.39,525.805 1168.93,526.144 1171.04,525.861C1173.02,525.597 1175.78,524.732 1176.52,523.49C1177.27,522.247 1175.21,519.423 1175.5,518.407C1175.76,517.477 1177.26,517.445 1178.24,517.39C1181.26,517.221 1190.18,517.39 1193.65,517.39C1195.46,517.39 1198.86,519.164 1199.07,517.39C1199.98,509.936 1200.6,480.174 1199.07,472.663C1198.47,469.692 1192.56,471.929 1189.88,472.324C1187.45,472.684 1185.03,474.357 1183.03,475.035C1181.36,475.604 1179.65,476.625 1177.89,476.391C1175.78,476.108 1173.01,473.918 1170.36,473.341C1167.5,472.72 1163.97,472.765 1160.76,472.663C1157.22,472.55 1152.31,472.268 1149.12,472.663C1146.5,472.987 1143.69,474.132 1141.58,475.035C1139.75,475.819 1137.92,476.955 1136.44,478.085C1135.03,479.156 1134.09,480.749 1132.67,481.812C1131.24,482.885 1129.47,483.958 1127.88,484.523C1126.35,485.06 1124.45,484.974 1123.08,485.2C1121.93,485.39 1120.45,485.195 1119.65,485.878C1118.85,486.561 1117.48,488.364 1118.28,489.297Z" fill="#a6b8aa"/>
        <path d="M1037.77,468.936C1038.06,470.404 1041.75,472.519 1043.26,474.696C1044.85,477.012 1045.2,481.417 1047.37,482.828C1049.54,484.24 1053.31,482.915 1056.27,483.167C1059.59,483.45 1064.1,483.501 1067.24,484.523C1070.16,485.475 1072.78,487.603 1075.12,489.297C1077.33,490.9 1079.23,493.055 1081.28,494.688C1083.26,496.258 1085.74,497.907 1087.45,499.093C1088.8,500.027 1090.07,501.112 1091.56,501.804C1093.39,502.651 1096.13,504.458 1098.41,504.176C1100.7,503.893 1103.04,501.182 1105.26,500.109C1107.34,499.108 1110.07,499.278 1111.77,497.738C1113.77,495.936 1117.77,490.704 1117.26,489.297C1116.74,487.891 1111.55,489.297 1108.69,489.297L1096.01,489.297C1093.85,489.297 1091.22,490.488 1089.51,489.297C1087.79,488.106 1087.45,484.02 1085.74,482.151C1084.02,480.282 1081.27,479.616 1079.23,478.085C1077.12,476.503 1074.94,474.357 1073.06,472.663C1071.33,471.104 1069.74,469.387 1067.92,467.919C1066.04,466.395 1063.64,464.588 1061.76,463.515C1060.16,462.604 1058.27,461.82 1056.62,461.481C1055.05,461.161 1053.42,461.425 1051.82,461.481C1050.22,461.538 1048.49,461.19 1047.02,461.82C1045.31,462.554 1043.08,464.7 1041.54,465.886C1040.26,466.872 1037.49,467.468 1037.77,468.936Z" fill="#a6b8aa"/>
        <path d="M931.228,515.357C930.771,516.261 931.113,518.802 931.913,520.101C932.712,521.4 934.979,521.808 936.024,523.151C937.166,524.619 937.908,527.273 938.765,528.911C939.493,530.305 940.203,531.728 941.163,532.977C942.248,534.389 943.87,535.945 945.274,537.382C946.93,539.076 949.385,541.274 951.098,543.142C952.685,544.873 953.211,548.279 955.552,548.595C962.289,549.503 986.328,549.786 991.524,548.595C994.34,547.949 988.555,543.204 986.727,541.448C985.041,539.827 982.547,539.305 980.561,538.06C978.22,536.591 974.623,534.332 972.681,532.638C971.157,531.308 970.35,529.316 968.913,527.894C967.428,526.426 965.258,525.353 963.774,523.828C962.3,522.315 961.482,520.256 960.005,518.746C958.349,517.052 954.467,515.188 953.839,513.663C953.24,512.21 955.255,510.83 956.237,509.597C957.721,507.733 961.147,504.063 962.746,502.481C963.667,501.571 964.624,500.597 965.829,500.109C967.086,499.601 968.828,499.802 970.283,499.432C972.281,498.923 975.65,497.963 977.82,497.06C979.752,496.255 981.579,495.193 983.302,494.01C985.186,492.717 987.927,490.083 989.126,489.297C989.506,489.048 990.875,489.549 990.496,489.297C989.639,488.727 986.099,485.878 983.987,485.878C981.874,485.878 979.933,488.727 977.82,489.297C975.727,489.862 972.967,488.681 971.311,489.297C969.729,489.886 969.027,491.869 967.885,492.994C966.796,494.066 965.982,495.845 964.459,496.043C962.289,496.326 957.493,494.236 954.866,494.688C952.432,495.107 949.67,496.89 948.7,498.754C947.729,500.618 949.099,504.119 949.042,505.87C949.005,507.021 949.157,508.421 948.357,509.258C947.386,510.275 944.703,511.348 943.218,511.969C942.019,512.471 940.69,512.593 939.45,512.985C938.022,513.437 936.024,514.284 934.653,514.68C933.535,515.002 931.684,514.454 931.228,515.357Z" fill="#a6b8aa"/>
        <path d="M229.599,515.018C228.685,515.696 231.985,516.229 233.025,517.052C234.167,517.955 234.936,519.885 236.451,520.44C237.992,521.005 240.34,520.28 242.275,520.44C244.33,520.609 246.62,521.082 248.784,521.456C251.068,521.852 253.58,522.529 255.979,522.812C258.363,523.093 261.06,522.868 263.173,523.151C265.039,523.4 267.284,523.715 268.654,524.506C269.918,525.235 270.938,526.821 271.395,527.894C271.794,528.831 270.534,530.389 271.395,530.944C272.708,531.791 276.877,532.638 279.275,532.977C281.423,533.281 283.9,532.808 285.784,532.977C287.412,533.123 288.954,533.827 290.58,533.994C292.236,534.163 294.01,533.881 295.719,533.994C297.432,534.107 299.716,535.518 300.858,534.671C302,533.824 301.772,530.718 302.571,528.911C303.37,527.104 304.284,525.127 305.654,523.828C307.025,522.529 308.942,521.696 310.793,521.118C312.963,520.44 317.074,520.779 318.673,519.762C320.101,518.854 321.242,515.866 320.386,515.018C319.529,514.171 315.647,515.414 313.534,514.68C311.421,513.945 309.708,511.799 307.71,510.614C305.739,509.444 303.599,508.58 301.543,507.564C299.374,506.491 296.347,504.345 294.691,504.176C293.396,504.043 292.75,505.928 291.608,506.547C289.838,507.507 286.695,509.09 284.071,509.936C281.445,510.783 278.418,511.122 275.849,511.63C273.455,512.104 270.596,512.534 268.654,512.985C267.142,513.337 265.571,513.833 264.201,514.341C262.909,514.82 261.807,515.915 260.432,516.035C258.491,516.204 255.149,515.81 252.553,515.357C249.641,514.849 245.301,513.381 242.96,512.985C241.497,512.738 239.974,512.762 238.506,512.985C236.279,513.324 230.513,514.341 229.599,515.018Z" fill="#a6b8aa"/>
        <path d="M75.09,528.233C78.116,528.572 81.77,527.217 85.025,527.217C88.241,527.217 91.418,527.912 94.618,528.233C97.986,528.572 101.688,529.034 105.238,529.25C108.949,529.476 113.005,529.753 116.886,529.589C120.883,529.419 125.508,528.29 129.219,528.233C132.548,528.183 136.071,529.024 139.155,529.25C142.004,529.459 145.435,529.532 147.719,529.589C149.432,529.631 151.488,530.492 152.858,529.589C154.229,528.685 155.599,525.579 155.942,524.167C156.194,523.125 155.954,521.416 154.914,521.118C153.144,520.609 147.948,521.287 145.321,521.118C143.242,520.983 141.224,520.345 139.155,520.101C136.756,519.819 133.445,519.593 130.932,519.423C128.651,519.27 126.352,519.349 124.081,519.085C121.169,518.746 116.03,518.181 113.46,517.39C111.645,516.832 110.32,514.849 108.664,514.341C107.028,513.839 104.895,513.945 103.525,514.341C102.275,514.701 100.784,515.527 100.442,516.713C100.099,517.899 102.326,521.456 101.47,521.456C100.613,521.456 97.416,517.673 95.303,516.713C93.307,515.806 90.678,516.148 88.794,515.696C87.144,515.301 84.797,513.607 83.997,514.002C83.198,514.397 84.897,517.045 83.997,518.068C82.855,519.367 79.487,521.005 77.145,521.795C74.853,522.57 71.664,522.247 69.951,522.812C68.716,523.219 66.011,524.28 66.868,525.184C67.724,526.087 72.181,527.908 75.09,528.233Z" fill="#a6b8aa"/>
        <path d="M44.942,533.316C46.712,534.954 48.139,537.439 50.081,538.737C51.996,540.019 54.706,540.601 56.59,541.109C58.148,541.53 59.902,541.505 61.386,541.787C62.773,542.051 64.585,541.737 65.497,542.804C66.468,543.938 65.262,548.017 67.21,548.595C70.465,549.56 82.684,549.277 85.025,548.595C86.816,548.072 82.619,545.76 81.257,544.498C79.544,542.911 76.86,540.093 74.747,539.076C72.888,538.181 70.554,539.012 68.581,538.399C66.582,537.777 64.47,536.422 62.757,535.349C61.174,534.358 59.388,533.259 58.303,531.961C57.262,530.714 56.99,528.798 56.247,527.556C55.585,526.447 55.021,525.067 53.849,524.506C52.079,523.659 47.797,522.699 45.627,522.473C44.021,522.306 42.357,522.63 40.831,523.151C39.175,523.715 35.92,524.901 35.692,525.861C35.463,526.821 38.202,527.897 39.46,528.911C41.002,530.153 43.223,531.725 44.942,533.316Z" fill="#a6b8aa"/>
    </g>
		</svg>

		<!-- if you need to darken or lighten your bg -->
		<rect id="bg" width="100%" height="100%" opacity="0.1" fill="#353535"/>
		<rect id="name-bg" width="100%" height="42px" fill="#353535" transform="translate(150,550)" />

		<!-- date -->
		<text font-family="&#39;Clarity City&#39;, Ubuntu, sans-serif" font-size="24" font-weight="700"	fill="#F2F2D9" letter-spacing="-1">
			<tspan x="160" y="130">
				27 / 05 / 2024
			</tspan>
		</text>

		<!-- title -->
		<text id="text"	font-family="&#39;Clarity City&#39;, Ubuntu, sans-serif" font-size="80"	font-weight="700" fill="#F2F2D9"	letter-spacing="-3">
			
			<tspan x="160" y="230">
				H.A.I.R. - A
			</tspan>
			
			<tspan x="160" y="315">
				Double-Edged Sword in
			</tspan>
			
			<tspan x="160" y="400">
				Modern HR Practices
			</tspan>
			
		</text>

		<!-- sitename / url -->
		<text font-family="&#39;Clarity City&#39;, Ubuntu, sans-serif" font-size="24" font-weight="500" fill="#F2F2D9" letter-spacing="-0.5">
			<!-- <tspan x="160" y="580">Brian Baldock · www.brianbaldock.com</tspan> -->
			<tspan x="160" y="580">Brian Baldock — www.brianbaldock.com</tspan>
		</text>
</svg>